<?xml version="1.0" standalone="no"?>
<!DOCTYPE svg PUBLIC "-//W3C//DTD SVG 20010904//EN"
 "http://www.w3.org/TR/2001/REC-SVG-20010904/DTD/svg10.dtd">
<svg version="1.0" xmlns="http://www.w3.org/2000/svg"
 width="640.000000pt" height="640.000000pt" viewBox="0 0 640.000000 640.000000"
 preserveAspectRatio="xMidYMid meet">
<metadata>
Created by potrace 1.11, written by Peter Selinger 2001-2013
</metadata>
<g transform="translate(0.000000,640.000000) scale(0.100000,-0.100000)"
fill="#000000" stroke="none">
<path d="M0 3200 l0 -3200 3200 0 3200 0 0 3200 0 3200 -3200 0 -3200 0 0
-3200z m3669 1700 c-16 -11 -29 -4 -29 16 0 12 4 13 21 3 17 -9 19 -13 8 -19z
m961 10 c0 -12 -28 -25 -36 -17 -9 9 6 27 22 27 8 0 14 -5 14 -10z m-1633
-216 c35 -3 68 -13 74 -20 6 -8 22 -14 34 -14 12 0 28 -6 34 -14 14 -17 51
-28 51 -15 0 17 30 9 42 -11 7 -11 19 -20 26 -20 7 0 15 -6 18 -14 5 -14 31
-25 66 -30 23 -3 58 -35 58 -53 0 -7 7 -13 14 -13 8 0 27 -11 42 -25 15 -14
33 -25 40 -25 13 0 19 -13 15 -34 -3 -17 43 -56 66 -56 13 0 26 -6 29 -14 4
-12 13 -10 41 10 54 36 106 33 149 -10 29 -29 34 -41 34 -81 0 -40 -5 -52 -34
-81 -19 -19 -43 -34 -55 -34 -18 0 -21 6 -21 44 0 25 5 48 10 51 16 10 12 42
-7 49 -31 12 -42 -14 -33 -79 5 -33 7 -61 5 -63 -2 -2 -13 2 -25 8 -31 17 -52
6 -44 -24 4 -18 1 -28 -15 -37 -15 -10 -17 -17 -9 -26 25 -31 -23 -58 -62 -33
-9 6 -17 5 -22 -2 -9 -16 -58 6 -58 27 0 8 -9 15 -20 15 -11 0 -27 11 -36 24
-8 14 -27 26 -42 28 -22 2 -27 8 -27 31 1 15 -4 27 -9 27 -5 0 -17 6 -25 14
-10 9 -23 11 -36 6 -11 -5 -14 -9 -6 -9 9 -1 2 -12 -16 -30 l-30 -28 57 -264
c69 -318 75 -349 59 -329 -9 13 -10 13 -5 -2 6 -20 -10 -35 -17 -16 -2 7 -3 5
-2 -4 2 -11 -8 -20 -26 -27 -16 -5 -29 -12 -29 -15 0 -3 8 -3 18 1 15 6 15 4
-2 -16 -13 -14 -22 -18 -26 -10 -5 7 -9 5 -13 -5 -3 -8 -2 -18 3 -21 8 -5 95
77 471 443 l115 112 110 -110 c60 -60 117 -127 126 -147 22 -48 24 -160 3
-211 -19 -44 -293 -324 -309 -315 -6 3 -7 2 -3 -2 10 -12 -153 -176 -167 -168
-6 3 -7 2 -3 -2 10 -11 -143 -166 -156 -158 -6 3 -7 2 -4 -4 10 -16 -193 -210
-243 -232 -55 -25 -130 -27 -196 -4 -39 13 -73 40 -162 127 l-113 110 116 116
c63 63 115 118 115 122 0 4 68 74 150 156 83 82 150 151 150 154 0 3 -9 8 -19
11 -15 3 -19 0 -16 -13 2 -10 -5 -26 -16 -36 -14 -13 -19 -14 -19 -3 0 8 -7 4
-16 -9 -9 -13 -20 -19 -27 -15 -9 5 -8 2 0 -8 11 -13 8 -20 -12 -39 -16 -15
-25 -19 -25 -10 0 18 -11 6 -14 -16 -2 -9 -11 -18 -20 -20 -21 -3 -34 -14 -17
-14 7 0 10 -4 6 -10 -3 -5 -13 -7 -23 -4 -14 5 -15 4 -2 -5 14 -10 13 -12 -10
-15 -6 0 -14 -6 -18 -12 -4 -6 -16 -16 -27 -23 l-20 -13 20 7 c19 6 19 5 -2
-16 -12 -13 -24 -21 -27 -18 -5 5 -138 539 -139 557 0 7 -22 -8 -48 -34 -27
-26 -45 -52 -42 -57 3 -6 1 -7 -4 -4 -10 6 -51 -30 -45 -39 1 -2 -1 -4 -5 -5
-17 -2 -32 -22 -26 -33 3 -6 2 -8 -2 -3 -11 10 -56 -33 -48 -46 4 -6 1 -7 -7
-2 -8 5 -50 -30 -126 -106 l-114 -114 -99 99 c-127 127 -156 177 -156 271 0
47 7 83 19 110 12 26 144 166 365 390 359 363 396 405 357 405 -7 0 -19 7 -26
15 -15 18 1 42 39 56 23 9 23 10 5 24 -19 15 -19 15 0 30 11 8 28 15 39 15 13
0 17 5 13 16 -9 24 4 37 33 31 14 -3 54 -9 88 -13z m-1322 -324 c11 -17 -5
-32 -21 -19 -7 6 -11 15 -8 20 7 12 21 11 29 -1z m2225 -215 c0 -8 -7 -15 -16
-15 -14 0 -14 3 -4 15 7 8 14 15 16 15 2 0 4 -7 4 -15z m-2970 -95 c0 -5 -5
-10 -11 -10 -5 0 -7 5 -4 10 3 6 8 10 11 10 2 0 4 -4 4 -10z m3690 -110 c0 -5
-5 -10 -11 -10 -5 0 -7 5 -4 10 3 6 8 10 11 10 2 0 4 -4 4 -10z m844 -335 c-4
-8 -10 -12 -15 -9 -14 8 -10 24 6 24 9 0 12 -6 9 -15z m-2304 -259 c0 -2 -8
-10 -17 -17 -16 -13 -17 -12 -4 4 13 16 21 21 21 13z m-1960 -151 c0 -8 -7
-15 -16 -15 -14 0 -14 3 -4 15 7 8 14 15 16 15 2 0 4 -7 4 -15z m3478 -416
c-2 -6 -8 -10 -13 -10 -5 0 -11 4 -13 10 -2 6 4 11 13 11 9 0 15 -5 13 -11z
m-757 -562 c89 -52 129 -117 129 -210 0 -78 -37 -145 -105 -193 -49 -34 -63
-38 -133 -42 -65 -4 -86 -1 -130 18 -205 88 -196 365 14 445 61 23 171 15 225
-18z m-2136 -114 l120 -136 3 136 3 137 59 0 60 0 0 -230 0 -230 -57 0 -58 1
-120 136 -120 137 -3 -137 -3 -137 -59 0 -60 0 0 230 0 230 58 0 58 0 119
-137z m560 -1 l120 -137 3 138 3 137 59 0 60 0 0 -230 0 -230 -58 0 -59 0
-119 136 -119 136 -3 -136 -3 -136 -59 0 -60 0 0 230 0 230 58 -1 57 0 120
-137z m1020 124 c64 -27 95 -116 59 -171 -10 -16 -12 -25 -5 -25 20 0 51 -64
51 -105 0 -49 -29 -98 -72 -125 -30 -18 -51 -20 -215 -20 l-183 0 0 230 0 230
165 0 c122 0 175 -4 200 -14z m1215 -41 l0 -55 -90 0 -90 0 0 -175 0 -175 -65
0 -65 0 0 175 0 175 -90 0 -90 0 0 55 0 55 245 0 245 0 0 -55z m-1652 -172 l3
-53 -135 0 -136 0 0 55 0 56 133 -3 132 -3 3 -52z m-1144 -394 c31 -36 33 -68
7 -100 -18 -22 -18 -23 3 -40 16 -13 21 -28 21 -62 0 -81 -47 -107 -192 -107
l-83 0 0 170 0 170 109 0 109 0 26 -31z m2326 4 c0 -20 -25 -59 -84 -133 l-84
-105 81 -5 82 -5 3 -33 3 -33 -133 3 -133 3 -3 26 c-2 20 17 51 83 135 l87
109 -81 3 -81 3 0 29 0 30 130 0 130 0 0 -27z m-1940 -23 l0 -30 70 0 c68 0
70 -1 70 -25 0 -24 -2 -25 -70 -25 l-70 0 0 -59 c0 -74 6 -91 34 -91 33 0 46
19 46 67 0 41 1 43 30 43 30 0 30 -1 30 -54 0 -44 -5 -60 -26 -85 -22 -27 -32
-31 -75 -31 -40 0 -55 5 -74 25 -24 23 -25 29 -25 160 l0 135 30 0 c27 0 30
-3 30 -30z m1110 0 l0 -30 70 0 c68 0 70 -1 70 -25 0 -24 -2 -25 -70 -25 l-70
0 0 -59 c0 -75 6 -91 36 -91 28 0 44 26 44 74 0 33 2 36 30 36 30 0 30 0 30
-56 0 -48 -4 -59 -29 -85 -24 -23 -38 -29 -73 -29 -87 0 -108 41 -108 213 l0
107 35 0 c32 0 35 -2 35 -30z m-1228 -69 c24 -27 28 -39 28 -92 0 -56 -3 -64
-34 -95 -31 -31 -40 -34 -90 -34 -47 0 -61 4 -87 28 -26 23 -33 38 -37 80 -9
102 40 156 137 149 46 -3 59 -9 83 -36z m348 23 c0 -14 2 -14 22 0 28 20 77
21 104 2 17 -12 22 -12 39 0 30 22 82 17 110 -11 23 -23 25 -31 25 -130 l0
-106 -32 3 -33 3 -5 94 c-4 77 -8 96 -23 105 -15 9 -22 7 -38 -13 -15 -19 -19
-39 -19 -107 l0 -84 -30 0 -30 0 0 78 c0 110 -5 124 -44 120 l-31 -3 -5 -95
-5 -95 -32 -3 -33 -3 0 130 0 131 30 0 c20 0 30 -5 30 -16z m517 -8 c27 -24
28 -27 28 -128 0 -100 -1 -103 -23 -106 -13 -2 -29 1 -35 7 -8 6 -18 6 -27 1
-28 -18 -99 -11 -120 10 -51 51 -9 123 78 135 57 8 70 18 52 40 -18 21 -58 18
-72 -5 -16 -25 -68 -28 -68 -4 0 48 37 72 112 73 36 1 54 -5 75 -23z m254 -5
c29 -35 24 -51 -15 -51 -21 0 -36 6 -40 16 -4 10 -16 14 -38 12 -55 -5 -40
-29 32 -52 78 -25 101 -55 81 -103 -15 -37 -48 -53 -107 -53 -70 0 -114 29
-114 76 0 23 57 18 70 -7 9 -16 19 -19 48 -17 25 2 38 8 40 20 2 12 -11 20
-55 33 -32 9 -64 22 -72 28 -38 31 -31 99 11 117 13 5 50 8 82 7 47 -3 63 -8
77 -26z m458 13 c26 -19 51 -71 51 -109 0 -25 -1 -25 -85 -25 -89 0 -100 -7
-68 -42 20 -22 56 -23 73 -3 15 18 70 20 70 3 -1 -37 -52 -68 -112 -68 -50 0
-82 19 -103 60 -31 59 -12 150 37 184 29 21 107 20 137 0z m136 6 c4 -7 12 -7
25 0 10 5 28 10 39 10 17 0 21 -6 21 -35 0 -32 -2 -35 -30 -35 -40 0 -50 -23
-50 -115 l0 -76 -32 3 -33 3 -3 114 c-1 63 0 121 2 128 6 15 52 18 61 3z m565
-22 c-1 -26 -14 -47 -60 -98 l-59 -65 62 -5 c58 -5 62 -7 62 -30 0 -25 0 -25
-107 -28 l-108 -3 0 29 c0 20 17 48 59 98 l59 69 -54 3 c-52 3 -54 4 -54 32
l0 30 100 0 100 0 0 -32z m230 2 c0 -21 -16 -47 -60 -97 l-61 -68 61 -3 c59
-3 60 -3 60 -32 l0 -30 -105 0 -105 0 0 31 c0 24 14 47 61 100 l61 69 -56 0
c-58 0 -75 12 -62 45 4 12 26 15 106 15 l100 0 0 -30z"/>
<path d="M2860 4460 c-9 -6 -10 -10 -3 -10 6 0 15 5 18 10 8 12 4 12 -15 0z"/>
<path d="M2930 4436 c0 -2 11 -6 25 -8 14 -3 25 -1 25 3 0 5 -11 9 -25 9 -14
0 -25 -2 -25 -4z"/>
<path d="M3055 4370 c10 -11 20 -20 23 -20 3 0 -3 9 -13 20 -10 11 -20 20 -23
20 -3 0 3 -9 13 -20z"/>
<path d="M3098 4343 c7 -3 16 -2 19 1 4 3 -2 6 -13 5 -11 0 -14 -3 -6 -6z"/>
<path d="M3126 4309 c3 -5 11 -9 18 -9 18 0 48 -35 39 -45 -5 -4 -2 -5 6 0 8
4 17 2 22 -6 7 -11 9 -10 9 4 0 9 -6 17 -13 17 -8 0 -22 9 -31 19 -18 19 -61
37 -50 20z"/>
<path d="M3090 4256 c0 -2 8 -10 18 -17 15 -13 16 -12 3 4 -13 16 -21 21 -21
13z"/>
<path d="M2834 4208 l-29 -33 33 29 c17 17 32 31 32 33 0 8 -8 1 -36 -29z"/>
<path d="M2669 4043 c-13 -16 -12 -17 4 -4 16 13 21 21 13 21 -2 0 -10 -8 -17
-17z"/>
<path d="M2594 3968 l-29 -33 33 29 c30 28 37 36 29 36 -2 0 -16 -15 -33 -32z"/>
<path d="M2504 3878 l-19 -23 23 19 c21 18 27 26 19 26 -2 0 -12 -10 -23 -22z"/>
<path d="M3660 3686 c0 -2 8 -10 18 -17 15 -13 16 -12 3 4 -13 16 -21 21 -21
13z"/>
<path d="M3718 2134 c-62 -33 -80 -147 -33 -203 95 -112 274 -15 235 128 -16
59 -59 91 -123 91 -29 -1 -64 -7 -79 -16z"/>
<path d="M3120 2110 l0 -30 95 0 c76 0 97 3 101 15 13 33 -15 45 -107 45 l-89
0 0 -30z"/>
<path d="M3120 1935 l0 -35 104 0 c82 0 106 3 117 16 9 11 10 20 2 32 -8 14
-30 18 -117 20 l-106 3 0 -36z"/>
<path d="M1610 1565 l0 -35 54 0 c59 0 82 16 71 50 -5 17 -15 20 -66 20 l-59
0 0 -35z"/>
<path d="M1610 1425 l0 -45 48 0 c52 0 92 21 92 49 0 30 -22 41 -82 41 l-58 0
0 -45z"/>
<path d="M1912 1508 c-6 -6 -12 -33 -12 -60 0 -40 4 -50 26 -65 24 -15 29 -15
52 -2 35 19 49 67 31 105 -11 23 -22 30 -49 32 -19 2 -41 -3 -48 -10z"/>
<path d="M2840 1433 c-33 -6 -50 -21 -50 -44 0 -25 51 -26 73 -1 17 19 23 53
10 51 -5 -1 -19 -4 -33 -6z"/>
<path d="M3527 1512 c-29 -32 -21 -42 33 -42 54 0 65 14 32 43 -24 22 -45 21
-65 -1z"/>
</g>
</svg>
